/* XPM */
static char * N1_xpm[] = {
"64 64 96 2",
"  	c #FFFFFF",
". 	c #4D4D4D",
"+ 	c #000000",
"@ 	c #AEAEAE",
"# 	c #A1A1A1",
"$ 	c #DADADA",
"% 	c #262626",
"& 	c #F0F0F0",
"* 	c #0D0D0D",
"= 	c #EAEAEA",
"- 	c #939393",
"; 	c #E2E2E2",
"> 	c #838383",
", 	c #5C5C5C",
"' 	c #D9D9D9",
") 	c #CCCCCC",
"! 	c #737373",
"~ 	c #FEFEFE",
"{ 	c #FCFCFC",
"] 	c #717171",
"^ 	c #D0D0D0",
"/ 	c #FDFDFD",
"( 	c #D8D8D8",
"_ 	c #626262",
": 	c #818181",
"< 	c #C6C6C6",
"[ 	c #E1E1E1",
"} 	c #515151",
"| 	c #F9F9F9",
"1 	c #919191",
"2 	c #BBBBBB",
"3 	c #E9E9E9",
"4 	c #404040",
"5 	c #F6F6F6",
"6 	c #9F9F9F",
"7 	c #AFAFAF",
"8 	c #EFEFEF",
"9 	c #2A2A2A",
"0 	c #F1F1F1",
"a 	c #ACACAC",
"b 	c #A3A3A3",
"c 	c #F4F4F4",
"d 	c #3B3B3B",
"e 	c #161616",
"f 	c #EBEBEB",
"g 	c #B8B8B8",
"h 	c #959595",
"i 	c #F8F8F8",
"j 	c #4B4B4B",
"k 	c #E3E3E3",
"l 	c #C3C3C3",
"m 	c #858585",
"n 	c #FBFBFB",
"o 	c #5D5D5D",
"p 	c #DBDBDB",
"q 	c #CDCDCD",
"r 	c #767676",
"s 	c #6E6E6E",
"t 	c #D1D1D1",
"u 	c #D6D6D6",
"v 	c #656565",
"w 	c #7E7E7E",
"x 	c #C8C8C8",
"y 	c #DFDFDF",
"z 	c #535353",
"A 	c #FAFAFA",
"B 	c #8E8E8E",
"C 	c #BDBDBD",
"D 	c #E8E8E8",
"E 	c #424242",
"F 	c #9D9D9D",
"G 	c #B2B2B2",
"H 	c #EEEEEE",
"I 	c #222222",
"J 	c #2E2E2E",
"K 	c #F2F2F2",
"L 	c #AAAAAA",
"M 	c #A6A6A6",
"N 	c #F3F3F3",
"O 	c #353535",
"P 	c #1C1C1C",
"Q 	c #ECECEC",
"R 	c #B6B6B6",
"S 	c #989898",
"T 	c #494949",
"U 	c #E5E5E5",
"V 	c #C1C1C1",
"W 	c #888888",
"X 	c #5A5A5A",
"Y 	c #CBCBCB",
"Z 	c #6C6C6C",
"` 	c #D5D5D5",
" .	c #7C7C7C",
"..	c #DEDEDE",
"+.	c #8B8B8B",
"@.	c #E6E6E6",
"                                                                                                                                ",
"                                                                                                                                ",
"                                                                                                                                ",
"                                                                                                                                ",
"                                                                                                                                ",
"                                                                                                                                ",
"                                                                                                                                ",
"                                                                                                                                ",
"                                                                                                                                ",
"                                                                                                                                ",
"                                                                                                                                ",
"                                                                                                                                ",
"                                                                                                                                ",
"                                                                                                                                ",
"              . + + + + + + + @                                       # + + + + + $                                             ",
"              . + + + + + + + % &                                     # + + + + + $                                             ",
"              . + + + + + + + + #                                     # + + + + + $                                             ",
"              . + + + + + + + + * =                                   # + + + + + $                                             ",
"              . + + + + + + + + + -                                   # + + + + + $                                             ",
"              . + + + + + + + + + + ;                                 # + + + + + $                                             ",
"              . + + + + + + + + + + >                                 # + + + + + $                                             ",
"              . + + + + + , + + + + + '                               # + + + + + $                                             ",
"              . + + + + + ) + + + + + ! ~                             # + + + + + $                                             ",
"              . + + + + + { ] + + + + + ^                             # + + + + + $                                             ",
"              . + + + + + / ( + + + + + _ {                           # + + + + + $                                             ",
"              . + + + + + /   : + + + + + <                           # + + + + + $                                             ",
"              . + + + + + /   [ + + + + + } |                         # + + + + + $                                             ",
"              . + + + + + /     1 + + + + + 2                         # + + + + + $                                             ",
"              . + + + + + /     3 * + + + + 4 5                       # + + + + + $                                             ",
"              . + + + + + /       6 + + + + + 7                       # + + + + + $                                             ",
"              . + + + + + /       8 % + + + + 9 0                     # + + + + + $                                             ",
"              . + + + + + /         a + + + + + b                     # + + + + + $                                             ",
"              . + + + + + /         c d + + + + e f                   # + + + + + $                                             ",
"              . + + + + + /           g + + + + + h                   # + + + + + $                                             ",
"              . + + + + + /           i j + + + + + k                 # + + + + + $                                             ",
"              . + + + + + /             l + + + + + m                 # + + + + + $                                             ",
"              . + + + + + /             n o + + + + + p               # + + + + + $                                             ",
"              . + + + + + /               q + + + + + r ~             # + + + + + $                                             ",
"              . + + + + + /               ~ s + + + + + t             # + + + + + $                                             ",
"              . + + + + + /                 u + + + + + v /           # + + + + + $                                             ",
"              . + + + + + /                   w + + + + + x           # + + + + + $                                             ",
"              . + + + + + /                   y + + + + + z A         # + + + + + $                                             ",
"              . + + + + + /                     B + + + + + C         # + + + + + $                                             ",
"              . + + + + + /                     D * + + + + E 5       # + + + + + $                                             ",
"              . + + + + + /                       F + + + + + G       # + + + + + $                                             ",
"              . + + + + + /                       H I + + + + J K     # + + + + + $                                             ",
"              . + + + + + /                         L + + + + + M     # + + + + + $                                             ",
"              . + + + + + /                         N O + + + + P Q   # + + + + + $                                             ",
"              . + + + + + /                           R + + + + + S   # + + + + + $                                             ",
"              . + + + + + /                           i T + + + + + U # + + + + + $                                             ",
"              . + + + + + /                             V + + + + + W # + + + + + $                                             ",
"              . + + + + + /                             n X + + + + + o + + + + + $                                             ",
"              . + + + + + /                               Y + + + + + + + + + + + $                                             ",
"              . + + + + + /                               / Z + + + + + + + + + + $                                             ",
"              . + + + + + /                                 ` + + + + + + + + + + $                                             ",
"              . + + + + + /                                    .+ + + + + + + + + $                                             ",
"              . + + + + + /                                   ..+ + + + + + + + + $                                             ",
"              . + + + + + /                                     +.+ + + + + + + + $                                             ",
"              . + + + + + /                                     @.+ + + + + + + + $                                             ",
"                                                                                                                                ",
"                                                                                                                                ",
"                                                                                                                                ",
"                                                                                                                                ",
"                                                                                                                                "};
