/* XPM */
static char * W1_xpm[] = {
"64 64 138 2",
"  	c #FFFFFF",
". 	c #777777",
"+ 	c #000000",
"@ 	c #D2D2D2",
"# 	c #565656",
"$ 	c #E5E5E5",
"% 	c #F7F7F7",
"& 	c #0D0D0D",
"* 	c #EDEDED",
"= 	c #B0B0B0",
"- 	c #A8A8A8",
"; 	c #C1C1C1",
"> 	c #D8D8D8",
", 	c #585858",
"' 	c #696969",
") 	c #CACACA",
"! 	c #919191",
"~ 	c #9F9F9F",
"{ 	c #161616",
"] 	c #F3F3F3",
"^ 	c #9E9E9E",
"/ 	c #3D3D3D",
"( 	c #FDFDFD",
"_ 	c #787878",
": 	c #CCCCCC",
"< 	c #EEEEEE",
"[ 	c #B2B2B2",
"} 	c #5C5C5C",
"| 	c #D9D9D9",
"1 	c #CBCBCB",
"2 	c #8F8F8F",
"3 	c #B1B1B1",
"4 	c #A2A2A2",
"5 	c #F8F8F8",
"6 	c #D7D7D7",
"7 	c #515151",
"8 	c #797979",
"9 	c #CDCDCD",
"0 	c #7A7A7A",
"a 	c #F6F6F6",
"b 	c #9B9B9B",
"c 	c #EFEFEF",
"d 	c #757575",
"e 	c #C7C7C7",
"f 	c #606060",
"g 	c #DADADA",
"h 	c #AEAEAE",
"i 	c #E9E9E9",
"j 	c #A3A3A3",
"k 	c #1C1C1C",
"l 	c #D6D6D6",
"m 	c #FEFEFE",
"n 	c #494949",
"o 	c #404040",
"p 	c #CFCFCF",
"q 	c #7C7C7C",
"r 	c #F5F5F5",
"s 	c #959595",
"t 	c #F0F0F0",
"u 	c #B3B3B3",
"v 	c #707070",
"w 	c #C3C3C3",
"x 	c #636363",
"y 	c #DBDBDB",
"z 	c #ABABAB",
"A 	c #E6E6E6",
"B 	c #A6A6A6",
"C 	c #F9F9F9",
"D 	c #D4D4D4",
"E 	c #D0D0D0",
"F 	c #7E7E7E",
"G 	c #5A5A5A",
"H 	c #F4F4F4",
"I 	c #909090",
"J 	c #F2F2F2",
"K 	c #B4B4B4",
"L 	c #6A6A6A",
"M 	c #BFBFBF",
"N 	c #686868",
"O 	c #E3E3E3",
"P 	c #A7A7A7",
"Q 	c #222222",
"R 	c #A0A0A0",
"S 	c #D1D1D1",
"T 	c #FCFCFC",
"U 	c #353535",
"V 	c #7D7D7D",
"W 	c #7F7F7F",
"X 	c #898989",
"Y 	c #B5B5B5",
"Z 	c #A9A9A9",
"` 	c #666666",
" .	c #BBBBBB",
"..	c #C2C2C2",
"+.	c #DCDCDC",
"@.	c #DFDFDF",
"#.	c #929292",
"$.	c #AAAAAA",
"%.	c #FAFAFA",
"&.	c #FBFBFB",
"*.	c #2A2A2A",
"=.	c #D3D3D3",
"-.	c #808080",
";.	c #838383",
">.	c #B6B6B6",
",.	c #B7B7B7",
"'.	c #6E6E6E",
").	c #DDDDDD",
"!.	c #262626",
"~.	c #A1A1A1",
"{.	c #D5D5D5",
"].	c #828282",
"^.	c #5D5D5D",
"/.	c #717171",
"(.	c #DEDEDE",
"_.	c #ADADAD",
":.	c #5F5F5F",
"<.	c #767676",
"[.	c #B9B9B9",
"}.	c #555555",
"|.	c #9D9D9D",
"1.	c #AFAFAF",
"2.	c #C9C9C9",
"3.	c #818181",
"4.	c #858585",
"5.	c #EBEBEB",
"6.	c #E0E0E0",
"7.	c #8B8B8B",
"8.	c #4F4F4F",
"9.	c #9A9A9A",
"0.	c #2E2E2E",
"a.	c #868686",
"b.	c #BABABA",
"c.	c #A5A5A5",
"d.	c #969696",
"e.	c #C4C4C4",
"f.	c #888888",
"g.	c #E7E7E7",
"                                                                                                                                ",
"                                                                                                                                ",
"                                                                                                                                ",
"                                                                                                                                ",
"                                                                                                                                ",
"                                                                                                                                ",
"                                                                                                                                ",
"                                                                                                                                ",
"                                                                                                                                ",
"                                                                                                                                ",
"                                                                                                                                ",
"    . + + + + + @                                     # + + + + + + $                                   % & + + + + + *         ",
"    = + + + + + -                                   * + + + + + + + ;                                   > + + + + + ,           ",
"    > + + + + + '                                   ) + + + + + + + !                                   = + + + + + ~           ",
"    % { + + + + + ]                                 ^ + + + + + + + / (                                 _ + + + + + :           ",
"      _ + + + + + @                                 # + + + + + + + + $                               % { + + + + + <           ",
"      [ + + + + + -                               * + + + + + + + + + ;                               > + + + + + }             ",
"      | + + + + + '                               1 + + + + 2 + + + + !                               3 + + + + + 4             ",
"      5 { + + + + + ]                             ~ + + + + 6 7 + + + / (                             8 + + + + + 9             ",
"        0 + + + + + @                             , + + + & a b + + + + $                           5 { + + + + + c             ",
"        [ + + + + + -                           * + + + + d   e + + + + ;                           | + + + + + f               ",
"        g + + + + + '                           1 + + + + h   i + + + + !                           [ + + + + + j               ",
"        5 k + + + + + ]                         ~ + + + + l   m n + + + o (                         0 + + + + + p               ",
"          q + + + + + @                         , + + + + r     s + + + + $                       5 { + + + + + t               ",
"          u + + + + + -                       < + + + + v       w + + + + ;                       g + + + + + x                 ",
"          y + + + + + '                       1 + + + + z       A + + + + !                       [ + + + + + B                 ",
"          C k + + + + + ]                     ~ + + + + D       m / + + + o (                     q + + + + + E                 ",
"            F + + + + + @                     G + + + + H         I + + + + $                   C k + + + + + J                 ",
"            K + + + + + -                   < + + + + L           M + + + + ;                   g + + + + + N                   ",
"            y + + + + + '                   1 + + + + -           O + + + + !                   u + + + + + P                   ",
"            C Q + + + + + ]                 R + + + + S           T U + + + o m                 V + + + + + @                   ",
"              W + + + + + @                 } + + + + J             X + + + + A               C k + + + + + ]                   ",
"              Y + + + + + Z               < + + + + `                .+ + + + ..              y + + + + + L                     ",
"              +.+ + + + + L               : + + + + B               @.+ + + + #.              K + + + + + $.                    ",
"              %.Q + + + + + ]             R + + + + E               &.*.+ + + o m             F + + + + + =.                    ",
"                -.+ + + + + @             } + + + + t                 ;.+ + + + A           C k + + + + + H                     ",
"                >.+ + + + + Z           < + + + + f                   ,.+ + + + ..          y + + + + + '.                      ",
"                ).+ + + + + L           9 + + + + j                   +.+ + + + #.          Y + + + + + z                       ",
"                %.!.+ + + + + ]         ~.+ + + + 9                   C k + + + o m         W + + + + + {.                      ",
"                  ].+ + + + + @         ^.+ + + + <                     V + + + + A       %.Q + + + + + r                       ",
"                  ,.+ + + + + Z       < + + + + G                       u + + + + ..      +.+ + + + + /.                        ",
"                  (.+ + + + + L       9 + + + + ~                       | + + + + #.      >.+ + + + + _.                        ",
"                  &.!.+ + + + + ]     4 + + + + 1                       % & + + + o m     -.+ + + + + l                         ",
"                    ;.+ + + + + @     :.+ + + + *                         <.+ + + + A   %.Q + + + + & a                         ",
"                    [.+ + + + + Z   c + + + + }.                          h + + + + ..  +.+ + + + + d                           ",
"                    (.+ + + + + L   9 + + + + |.                          l + + + + #.  >.+ + + + + 1.                          ",
"                    &.*.+ + + + + ] 4 + + + + 2.                          r + + + + o m 3.+ + + + + 6                           ",
"                      4.+ + + + + @ :.+ + + + 5.                            '.+ + + + 6.!.+ + + + & %                           ",
"                      [.+ + + + + 7.+ + + + 8.                              $.+ + + + 7.+ + + + + .                             ",
"                      @.+ + + + + + + + + + 9.                              @ + + + + + + + + + + 3                             ",
"                      &.0.+ + + + + + + + + e                               ] + + + + + + + + + + >                             ",
"                        a.+ + + + + + + + + i                                 ` + + + + + + + + { %                             ",
"                        b.+ + + + + + + + n m                                 c.+ + + + + + + + 0                               ",
"                        6.+ + + + + + + + d.                                  p + + + + + + + + [                               ",
"                        &.0.+ + + + + + + e.                                  c + + + + + + + + g                               ",
"                          f.+ + + + + + + g.                                    ^.+ + + + + + k 5                               ",
"                                                                                                                                ",
"                                                                                                                                ",
"                                                                                                                                ",
"                                                                                                                                ",
"                                                                                                                                ",
"                                                                                                                                ",
"                                                                                                                                ",
"                                                                                                                                "};
