/* XPM */
static char *_9534224115e41aba8a34f239c6749b6dv1bvSbgHo3pED1o[] = {
/* columns rows colors chars-per-pixel */
"64 64 78 1 ",
"  c #88BFEC",
". c #85C0EE",
"X c #8BC3EE",
"o c #95C3E7",
"O c #98C3E7",
"+ c #94C4ED",
"@ c #9BC6ED",
"# c #96CAEE",
"$ c #9EC9EE",
"% c #86C2F3",
"& c #8CC5F1",
"* c #8EC9F9",
"= c #93C6F1",
"- c #99C6F1",
"; c #95CAF2",
": c #9CCCF2",
"> c #92CEF9",
", c #9DD0F5",
"< c #96D0FA",
"1 c #9AD1F9",
"2 c #A9C7E7",
"3 c #AFCAE7",
"4 c #A2C6ED",
"5 c #A3CBEE",
"6 c #ACCDED",
"7 c #B2CEEC",
"8 c #B8CEEB",
"9 c #ADD1EF",
"0 c #B4D1EE",
"q c #BBD2EE",
"w c #A4CDF2",
"e c #ABCEF1",
"r c #A5CFF8",
"t c #B1CFF1",
"y c #A5D1F4",
"u c #ACD2F4",
"i c #A3D4F9",
"p c #ACD5F9",
"a c #ACD9FB",
"s c #B4D3F2",
"d c #B9D3F0",
"f c #BDD3F0",
"g c #B8D4F2",
"h c #BBD6F3",
"j c #B9D6F4",
"k c #B9D6F6",
"l c #BDD6F4",
"z c #B7D8F7",
"x c #BED8F3",
"c c #B8D9F7",
"v c #BED8F4",
"b c #BFDBF6",
"n c #B2D7F9",
"m c #B8D7F8",
"M c #B2D9FB",
"N c #B3DAFB",
"B c #B4D9FA",
"V c #B8DBFB",
"C c #BDD9F8",
"Z c #BBDDFB",
"A c #BBDDFC",
"S c #C2D5EB",
"D c #C0D4ED",
"F c #C3D7EF",
"G c #C1D6F0",
"H c #C0D7F4",
"J c #C3DAF3",
"K c #C5DAF3",
"L c #C3D8F7",
"P c #C0DBF7",
"I c #C4D8F7",
"U c #C5DCF7",
"Y c #C8DBF6",
"T c #C2DBF8",
"R c #C1DDFA",
"E c #C6DFF9",
"W c #C8DEF8",
"Q c #C5E0FC",
/* pixels */
"dses6uw$44$$wywewwwB9600gqvgqqgLlqggqqGqSUFGLTRgCvvg00ksescg7sks",
"kssueupw5yy:yw$4eweBs667gdlgqqGIggLGqqq8qJFFLHggdskdqsgsssss66sk",
"tts6epppuww@w@456euVg77700dggJKLggLEqqqqGKIYILdq700qxLks7ss77ssu",
"66696Nuu44$::@$56upAc0000klgLWFGLgLEhhGqFJFGJvdl777vLvg06gg7s766",
"sskcuNyw$$$w::w5ussZc777gglGqGqq7qggLLLqq8qGLUJqdkkRv0ss7ss7kse6",
"sss06wpw:$$:::w9ss6Bz6s70gTlddqqq0dlLLGggqgLIIGgkkkgd0sssu67kksk",
"se665wpiw$ww5wpsskkkz0000g0gqd7qqqqlggggggvLLqggdkk70700se6skkks",
"e6s6ewwwwwy45up9ssssZgqqss77777HGqqqqqqsdgxLLggksmk7s7006sssks0e",
"suu6ww$$pups9w4eusscZcggk7s0kdgUqq0q00000gkgddgVskkgg0ggkks60sss",
"s0ueww55pNs964$5ussgcBk0g077klLq0777700ckssss76gkkcCZCkgg0s77ss0",
"0st666666Npw:wuesgggcssggdkdgl036670666skueus660sgkzVckkkggk7ss7",
"76s77066uai@$yuuss07cskgggckgv0222666e5uuueuss6sss06ss0g0gggssss",
"ggg07654wpy456uuesd0qgvgcvkksksse555655w56eepksseussgssvg0gssgkk",
"vgggsuwwypppw5weesdgqLRgggksue5pww4455uwweewwpeeees0gggCCs737ssc",
"vd0sssppuuuywwesssggqvq0ss66ew44$wrw5wyw:www:wu6ess0ggkCCk000ssl",
"Cs767sgsppe5eunckglxgvgseee554weww$@$4ww::::::ysgkksggsgxg0q0ssv",
"g00csg0spusszzgVvkcgcgsseerw4$$www@@$5yy;=;:::iNmkkCvlqgggggg70g",
"Rggggs0suussgskVZcggk0ssuuuw$$www:@::::,>%&;::,pksskgggggggvCgkR",
"Rvvccggs000gkskkkkkk9e9uuuuw44yuw4@+=&&#XX%>y::yzs0kgggqggggkklT",
"QQvgkgxxgkgVckkBs9zB66eu66eNu5ee5$o+X XX#+%&i,:wBggc0ggCvvCRRERR",
"gqq000JJgsgkgggksuku66pne6ussu545:+&X.. ;#&X#i:wus0kcvvRvvTLLHgg",
"0qqq7qxgg077ssgsuueu6eeueeeusp55$:;X%XX&#$;;;:$:usccs0kkdqghqqqg",
"kdggqqgq0qss70sseuue69usuueeppw::::++XXX:iy:=:yyyrBBu6sggqdqq7qg",
"q0gqqgg0ggggg60sunpuu99pu66uyw::ii:#;;;;1,yi>;:i:46ssssggqgds0qq",
"q0dqqgl7ggd066sssNpe6u6upywwu5w+@wpi:;<*%:w$++::@@ws06sk00gggqgg",
"g77ggGgqqqd07sssssu6669uuwwyuuew5upi:11=X=:5@=::@@wu9666skdgqqff",
"gdgdgJGgGggsssg006656uuuywwwuu0ke5yai:;++=:ww-;::4wwue6u60gggglL",
"qdgllJGJgqgs7sgg0065wu6euuw6669swww5w:::+=:ww:-@44wwre767sgglkgg",
"qggglgqJg8q07gkg0s66e556nNpsu66urw5wp5$y+;@$ww:+@5uwesss70dlglqq",
"qqvgggqqqqqq7sm7tsssueeezgseeuuueuu6pu5w::@$wu4@Owup69s6ssggGLqq",
"qgggqdqqqqqq0gksksssssuN0sueesus7su6u654:@+@wuw4@4uN66ss76dgGFq0",
"g0glqqGqFKGgkCCgklvkk6sBessu6ek776esuuw$::@@wuwww5uN55skk0gqqIUx",
"lqGgqqGqSUFGLTRgCvvg00ksescg7sksdses6uw$44$$wywuwwwB9600gqvgqqGL",
"ggLGqqq8qJFFLHggdskdqsgsssss66skkssueupw5yy:yw$4eweB0667gdlgqqGI",
"hgUEfqqqGKKYILdq700qxLks6ss77ssutts6epppuww$w@455euBg77700dggKKL",
"IgLEhhGqFJFGJvdl777vLvg06gg7s66666696Nuu44$::@$56upAc0000klgIWFG",
"7qggLLLqq8qGLUJgdkkRv0sstss0kse6sskcuNyw$$$w::w5ussZc777gglHqGqq",
"q0dlLLGggqgLIIGgkkkgd0sssu67kkkksss06wpw:$$:::w9ss6Bz7s70gTldfqq",
"qqqgggggggvLJqggdkk70700se6skkksse665wpiw$ww4wpsskkkz0000g0gqd7q",
"GqqqgqqsdgxLLggksmk7s7006sssks0ee6s6ewwwwwy45up9ssssZgqqss77777H",
"qq0q00000gkgddgVskkgg0ggkks60ssssuu6ww$$pups9w4eusscZcggk7s0kdgU",
"0777700ckssss76gkkcCZVkgg0s77ss0s0uew455pas964$5ussgcBk0g077klLq",
"66706eeskueus660sgkzcckkkggk7ss70st666666Npw:wyesgggcs0ggdksgl03",
"62666e5uuueuss6sss06ss0g0gggssss76s77066uai@$yupss07csggggckgv02",
"e555655w56eepkssesssgssvg0gssgkkggg07654wpy456uuesdsqgvgcvkkskss",
"ww4455uwweewwpeeeessgggCCs737sscvgggsuwwypppw5weesdgqLRgggksue5p",
"@www5wuw:wwwwru6ess0ggkCCk000sslvd0sssppuuuywwesssggqvq0ss66ew44",
"ww$@$4ww::::::usgkksggsgxg0q0ssLCs767sgsppe5eunckglvgvgseee554we",
"ww@@$5yy;=;:::yNmkkCvlqgggggg70gg00csg0spusszcgVvkcgc0sseerw4$$w",
"w:@::::,>%&;:::pksskgggggggvCgkRRggggs0suussgskVZcggk0ssuuuw$$ww",
"w4@+=&&#XX%>y::yzs0kgggqggggkllTRvvccggs000gkskkkkkk9e9uuuuw44yu",
"5$o+X XX#+%&i,:wBggc0ggCvvCRRERRQQvgkgxxgkgcckkBs9zB66eu66eauwee",
"5:+&X.. ;#&.#i:wus0kcvvRLLTLLHgggqq000JJgsgkgggksuku66pnu69ssu54",
"$:;X%XX&#$;>;:$:usccs0kkdqggqqqg0qqq7qxgg077ssgsuueu6eeuweeusp55",
":::++XXX:iy:=:yyyrBBu6sggqfq07qgkdggqqgq0qss70sseuue69usuueuppw:",
"ii:#;;;;<,yi;::i:46ssssggqgds0qqq0gqqgg0ggggg60sunpuu99pu66uww::",
"@wpi:;<*%:w$++::@@ws06sk00gggqggq0dqqgl7qhd066sssNpe6u6upywwu5w+",
"5ypi:11=X=:5@=:w@@wu9666skdgqqdfg77gggqqqqd07sssssu6669uuwwyuuew",
"e5yai:;++=:ww-;::4wwue6u60gggglLgdgdgJgggggsssg006656uuuuwwwuu0k",
"www5w:::+=:ww:-@44wwre767sgglkggqdgllJgJgqgs7sgg0065wu6euuw6669s",
"rw5wp5$y+;@$ww:+@5uwesss70qlglqqqggglgqJg8q07gkg0s66e556nNpsu66u",
"euu6pu5w::@$wu4@Owup69s6ssdgGLqqqqvgggqqqqqq7sm7tsssueeezgseeusu",
"7su6u654:@+@wuw$@4uN66ss76dgGFq0qgggqdqqqFqq0gksk00sssuN0sueesus",
"76esuuw$::@@wuwww5uN55skk0gqqIUxg0glqqGFFKGGkCCgklvkk6sBessu6ekt"
};
