/* XPM */
static char *_47fd83d11444de9926aef39677e5ae4skTCzi4fQZ1ATXAF[] = {
/* columns rows colors chars-per-pixel */
"64 64 253 2 ",
"   c #4E0F05",
".  c #550A02",
"X  c #660701",
"o  c #790A02",
"O  c #661707",
"+  c #7A1404",
"@  c #5F351B",
"#  c #78270C",
"$  c #712E0F",
"%  c #880601",
"&  c #840B02",
"*  c #8B0B01",
"=  c #990500",
"-  c #930D02",
";  c #9B0C02",
":  c #871705",
">  c #951404",
",  c #971605",
"<  c #A30400",
"1  c #AB0700",
"2  c #A30D01",
"3  c #AB0B02",
"4  c #B80300",
"5  c #B20B01",
"6  c #BC0C02",
"7  c #AC1303",
"8  c #A31B05",
"9  c #A51805",
"0  c #AB1B04",
"q  c #B41303",
"w  c #BB1403",
"e  c #B41C04",
"r  c #BC1B04",
"t  c #89280A",
"y  c #982508",
"u  c #8F330B",
"i  c #9A360D",
"p  c #8A3913",
"a  c #993911",
"s  c #A42309",
"d  c #AA2809",
"f  c #B52405",
"g  c #B72506",
"h  c #B42B0B",
"j  c #BD2B0A",
"k  c #AB320C",
"l  c #A8390D",
"z  c #B3330D",
"x  c #BC340B",
"c  c #B93A0A",
"v  c #A63912",
"b  c #B73B12",
"n  c #C50400",
"m  c #CB0400",
"M  c #C40C01",
"N  c #CC0D01",
"B  c #D90400",
"V  c #D40C01",
"C  c #DC0C01",
"Z  c #C41403",
"A  c #CA1303",
"S  c #C21C04",
"D  c #CB1B03",
"F  c #C51C08",
"G  c #D41403",
"H  c #DC1303",
"J  c #D31A04",
"K  c #DC1A03",
"L  c #E30500",
"P  c #EC0400",
"I  c #E40D01",
"U  c #ED0B01",
"Y  c #F30600",
"T  c #FE0600",
"R  c #F40D01",
"E  c #FE0C01",
"W  c #E51401",
"Q  c #EB1402",
"!  c #E21C03",
"~  c #ED1B03",
"^  c #E61C09",
"/  c #F41302",
"(  c #FE1302",
")  c #F31A03",
"_  c #FE1C03",
"`  c #FE1F08",
"'  c #C42405",
"]  c #CC2305",
"[  c #C62908",
"{  c #CC2C0A",
"}  c #D12204",
"|  c #D72707",
" . c #DD2304",
".. c #DB2B06",
"X. c #D42D09",
"o. c #DD2B09",
"O. c #C93808",
"+. c #D33505",
"@. c #DB340C",
"#. c #D63A09",
"$. c #DB3A0C",
"%. c #C82F11",
"&. c #C73B12",
"*. c #D33B12",
"=. c #DA3812",
"-. c #E32505",
";. c #EB2405",
":. c #E42A05",
">. c #E92A07",
",. c #F32305",
"<. c #FE2304",
"1. c #F42C06",
"2. c #FD2B05",
"3. c #F52709",
"4. c #FE2C0A",
"5. c #E93709",
"6. c #EC350B",
"7. c #E33B0A",
"8. c #FD3305",
"9. c #FA3A05",
"0. c #F4320A",
"q. c #FE340A",
"w. c #F43C0C",
"e. c #FE3C0C",
"r. c #E53711",
"t. c #F63D11",
"y. c #9A4614",
"u. c #BA4509",
"i. c #AA4917",
"p. c #B74615",
"a. c #A8581B",
"s. c #B95817",
"d. c #985121",
"f. c #AB5C23",
"g. c #BA5922",
"h. c #A76629",
"j. c #BA6823",
"k. c #B87832",
"l. c #C8490C",
"z. c #D84804",
"x. c #D4420C",
"c. c #D8430C",
"v. c #D2490B",
"b. c #DB4B0C",
"n. c #C3580C",
"m. c #D9540C",
"M. c #C74815",
"N. c #DB4412",
"B. c #D64815",
"V. c #DC4A16",
"C. c #C3541A",
"Z. c #C85818",
"A. c #DA5215",
"S. c #D55917",
"D. c #DE5D1C",
"F. c #E4430D",
"G. c #E8460A",
"H. c #F6460B",
"J. c #FE430B",
"K. c #FF4B0D",
"L. c #E4560C",
"P. c #E8570C",
"I. c #F75409",
"U. c #FE530B",
"Y. c #E84A13",
"T. c #FE4613",
"R. c #F44C13",
"E. c #FF4A12",
"W. c #E65613",
"Q. c #EB5513",
"!. c #EB5C13",
"~. c #EC5B1B",
"^. c #F45414",
"/. c #FE5514",
"(. c #FE5C14",
"). c #F75818",
"_. c #DD620C",
"`. c #CA6518",
"'. c #D56413",
"]. c #D96719",
"[. c #CB721D",
"{. c #DA751A",
"}. c #E9630C",
"|. c #FA670B",
" X c #FC760B",
".X c #E66C14",
"XX c #EA6817",
"oX c #E4641C",
"OX c #F36411",
"+X c #FE6413",
"@X c #FD6C13",
"#X c #FE651C",
"$X c #F56A18",
"%X c #FD6C1C",
"&X c #EA731B",
"*X c #EB731C",
"=X c #F47316",
"-X c #FE7415",
";X c #FC7B14",
":X c #F3731C",
">X c #FC731B",
",X c #F37B1D",
"<X c #FD7B1B",
"1X c #C75C23",
"2X c #D35E21",
"3X c #FF5D23",
"4X c #CA6425",
"5X c #C66827",
"6X c #D66724",
"7X c #DB6B23",
"8X c #CA7828",
"9X c #D77628",
"0X c #C97B35",
"qX c #D57E33",
"wX c #E66421",
"eX c #E36B25",
"rX c #ED6B21",
"tX c #F56A24",
"yX c #FF6C24",
"uX c #E77727",
"iX c #F47223",
"pX c #FD7322",
"aX c #F17C23",
"sX c #F97B29",
"dX c #E57F32",
"fX c #FB7932",
"gX c #EF811B",
"hX c #FA871A",
"jX c #FE931D",
"kX c #D38831",
"lX c #DA8837",
"zX c #EA862B",
"xX c #FC8424",
"cX c #F28A24",
"vX c #FB8A24",
"bX c #F58729",
"nX c #FE842B",
"mX c #FB8C2D",
"MX c #FC9525",
"NX c #F4922C",
"BX c #FB952C",
"VX c #FC9C2B",
"CX c #EB8934",
"ZX c #F38C32",
"AX c #FA8A34",
"SX c #EA9539",
"DX c #F99737",
"FX c #FBAE30",
"GX c #FBA73A",
"HX c #EF9A43",
"JX c #F7A64A",
"KX c #F7B249",
"LX c #FEC552",
/* pixels */
"<.E.wXj.$ + M T _ ^.DXVXGX=XvXAXZXlX9X9XC.j D E E 3 ; 5 M H ( Y W v X - / ( 8 $ M.>X>X{.C.OX+XhX,XhXvX'.k C ( w.eXzXcXhXSXa.h Q ",
"( j $   . ; L T 0 u h.9XkX{.DXSXlXf.p.p.v F _ ` | O : V R / ! N J A.a f ! e # p C.nXmXNXXXvXpXmXiXMXvX.X#.) V y M.&XnXNXj.u D E ",
"E ; . X 1 V T P q y i.s.qX[.9Xs.y.l O.+.} ;.q.T.Y.v { 4.` ' 8 M <.#XiXY...r y i.5XsXmXxX XVXxXvX@XjXNX&XV.K * + &.>XDX6Xt 9 U E ",
"P < X 2 _ <._ Q Z S +.x.'.`.'.m.m.O.+.<.;.e./.yXtXoXL.J.@.z y Z q.nXDXaXV.{ { N.rXrXmXBXMXGXuXzX,XVXNX].M.S = q @.Q.4Xp : C T P ",
"B < : 6./.yX/.>.K ! >.5.O.u.O.#.$.3.` 4.e.(.+X%XpX,X].Q.Y.#.s r X.wXCXAXeX*.@.Y.iXiX<XvXgXkXs.].XX,X8Xs.l 9 1 V ,.>. .; 1 m P B ",
"R Z h S.sXGXvX!.:.( Q -.' ]  .~ ) C G r.(.<X$X!.~.eXg.p.N.N.s , j ~.fXJXHX1X*.F.P.OX XjX<X[.s.iXfXnXXXm.{ G P Y E ( _ Z 6 < n B ",
"_ t.C.6XuXKXKXSXF._ L U G Q Q C M 6 F R.>X:XA.x.G.M.u t j ' - & S K.fXDXDXZ.&.>.J.+X;XjXhX.XOX-XnXxX,X*X$./ T E / <.4.%.s * M R ",
"e.U.W.L.OX>XmXCXx.) n L Q >.X.S Z V } ^.fX6Xp.c 7.%.+ & G I n = ! U.DXLXKX4X*.3.0.R.@XBXMXgX=XNXNXaX%XuXV.G U ( 2.H.).D.#.f Q 2.",
"@X@X<X@X<XxXBXdX&.w & 7 z p.p.[ ! / ` e.p.$ # h :.Z * < I E U 4 Q J.nXGXlX'.N.3.4.r.^.sXSXqX4XA.S.!.aX7Xb w ) q.U.+X=X}.c.>.2.U.",
"gX.X.X=XxX,X&Xl.d .   # i.a.s.c ;.( E 9 O O : Z ~ W Q ) <.<.,.q W <.Y.eXqX7XM.{ r.%.*.V.S.s.p.N.Q.W.].a y ] t.#XsXxX,XA.| -.J.-X",
"[.'.|.;X,XXXb.+.8 O t l l.Z.u.c } U 4 . . & N R ( <.q.K././.b.h } <...*.C.M.p.x =.d f { &.b p.#.x.x x [ 1.J.yXmXDXzXS.h 7 F K.bX",
"`.].>XGXSXs.h w ; s { v.(.<X!.G.| 6 X . + A / ( <.J.#XnXsX>X_.l.z.0.} J ] [ b b &.d Z W K e f | [ , D 4./.pXbX9Xf.$ O X * e K.NX",
"8XuXrXrXC.y 7 V H 0.H.|.<XMX%Xb.f - X + S ) ( _ +.b.*XZXDXGXcX*X}.c.f 7 M Z f f ' e W E C N I ( N 2 Q q.^.6Xi.u : o = = 5 } I.cX",
"C.s.v z h 0 Z / <.K.>X XjXVXZXS.f 2 2 A ) _ ( A k l.}..X{.kX8X`.n.l.f w M M 7 w D ! _ ~ w A E E V 3 W X.x v y e M M 4 n C  .O.'.",
"t y e G C 2 M ( q.yXGXjXVX*XZ.z e 5 C / ( W N 6 d &.P.@X+X].s.s.u.O.{ K U I G ~ ,.<.q.6.O.} ) U = & 7 r S J H ) <.<.A I T Z , y ",
"G W ) ( R 3 V ( -.A.CXCXlXi.l ' K ! 2.2.:.J N I K @.^.>X-X;Xm.}.m.G.+.~ ) _ 8.8.e.w.(.^.!.7.,.H ; 2 Z G Q ( ` e./.~.&.G Y 4 % 2 ",
"2.e.T.q.] 9 A M , t i.i.p : Z ) 1.w.E.H.w.1.<._ Q S 7.$XnXBX:X*XoXc.| W ) 8.(.+X:XA.XX!.OXF.;.N 3 Z o.2.` ` q.(.:XzXy.: M L 3 A ",
"/.yXyXC.&.X.,.Q 5 7 r 0 , M R _ 5.W.rX~.Y.w.K.w.X.D ;.E.#XaXeXoXY.0.J N D e.-XhX,XS.P.OX!.7.D 6 G 2.J.#.{ ' +.m.&X5Xp 0 C ( -.w.",
"DXAXeXZ.b.I.K.;.6 V U R I R ( <.=.Y.).Y.*.F.^.S.u.X.<.4.{ k x =.r.s : * 0 6.>X,XcXuXOXL.F.{ , - G q.~.l.j e [ v.v.i.s J ( <.Y.7X",
"uXoXW.I.I.@X#X#.7 N E E / _ <.q.t.E.3X).N.7.^.'.n.x.| Z X . : d z # # , D ;.^.Q.oX].m.#.] 9 8 e ,.q.c.z ' J ;.>.7.o.! ( _ e.~.7X",
"aX>X%X$XpX<XaXM.8 M ( R D >.8.e.^.3XfXiXS.H.(.+X}.z.+.w X o D H.wX5Xi.[ ;.` 4.6.*.*.] 7 - 0 ..$.0.0.o.X.:.~ ) <.3.<.H ( >.F.oXuX",
"_.OX:XoX7XoXXXb e G / C w -.e.J.R.^.sXCX7X/.pXbX9Xv.#.! 6 G 9.|.=X'.Z.c.3.( E M ; 3 - o - S 5.Y.7.;./ ) ) ~ ) <.^ A 1 M s y.`.[.",
"}.@XyXuX7XS.v.*.o.` ) C V ,.J.(.%XyXnXdX5X~.pXuX4XF.#.<./ 4.(.vXNX&XiXm.1.( m X o w w 2 q ! 1.5.1.<.( ( ~ K 3.0.[ , , 7 y i v.'.",
"|.>XsXBX.XM.{ -.o.] A n U ` K.nXCXZXZX9Xg.M.oX9X6XXXQ.-.w o.wXCX[._..XB.,.C 1 o 9 ..=.' ! ( <.2.q.| f f f j | [ f f <.2.s k I.:X",
"sXaXnXJX5X&.;.<.q.} Z m R _ e.5Xk.0XzXzX1XZ.W.D.P.Q.z o & S M.C.Z.L.v.] W H e z N.Q.Q.O.D H _ 5.b p l l.N.O.j g  .q.(.2Xa d H.&X",
"M.M.B.Z.i.X.q.e.T.] 6 C E ( r @ @ d.9XHXqXS.L.P.b.X.: o 4 W 2.@.O.d e G ( 4.V.C.C.m.L.+.f f j M.p.i.v.OXpXD.x ] 2.(.ZXh.$ y 1.x.",
": , f ] j =.).).T.F 1 V I / w + : x !.,Xj.p.l.O.' q 3 N ( _ ~ G Z 6 C ( 2./.9X5XC.m.7.X.d k c G.I.!.OX<XxX4Xl :.e.iXlXh.v ' _ w ",
"* 7 K ~ o.&.p.p.d , & 6 Q 2.q.X.] :.G.B.v h ' D S  .e.T.E.%.+ * < 4 E 2.+XNXkXa.C.c.1.8.x.v.Y.U.@X-X>X<XxXrXx.6.T.9X0Xj.M.>.( n ",
"} 3.q.6.&.*.k 0 : , , 0 5.U.#X~.j ;.<.K 7 6 C G >.J.#XnXSXd.O * 4 L <.U.VXKXk.i.c 7.e.R.S.m.U.|.hX,X{..XmXAXwXF.G.].7XuXD.t.! A ",
"J.e./.Q.V.@.f 7 Z ,.e.N.Y.pXAXSXi.@.2.! 5 4 m K e.-XVXFXDXj.t w L ( J.-XVXkXa.u.O.1.J.$X.XL.|. XhX.X'.z.>XiXD.b #.L.$X*Xp.$.r.2.",
"hXG.t.N.N.1.K 0 -.J.#XuXS.oXoX9Xj.OX+Xc., = V 2.+XMXBXVXSX9Xp.K E <.(.;XxXa.a h -.q.(.cXcX&X|.|.-X-X>XOX<X*XZ.x ..F.Q.S.i %./.#X",
"FXG * , ~ ( H y F.pXmXHXg.D./.<XuXhXcXs.# = C e.xXFXBXNXSX8Xl K ( e.sXGX9Xi f Q _ e.-XhXgX_.;XvXBXDXmXuX].u.f K ( <.o.z y f o.DX",
"W v X - R ( 8 $ M.>X>X{.C.OX+XhX,XhXvX'.k C ( w.eXzXcXhXSXa.h Q <.E.wXj.$ + M T _ ^.DXVXGX=XvXAXSXlX9X9XC.j D E E 3 ; 5 M H ( Y ",
"J A.a f ! e # p C.nXmXNXXXvXpXAXiXMXvX.XO.) V y M.&XnXNXj.u D E ( j #   . ; L T 0 u h.9XkX{.DXSXlXf.p.p.l ' _ _ | O : V R / ! N ",
"<.#XiXF...r y i.5XsXmXxX XVXxXvX@XjXNX&XV.K * : &.>XDX6Xt 0 R T E ; . X 1 C T P q y i.s.qX[.9Xs.y.l O.+.} ;.q.J.Y.v { 4.` ' 8 Z ",
"q.nXDXaXV.{ { N.rXrXmXBXMXGXuXzX,XVXNX].M.S = q @.Q.4Xp : C T P P < X 2 _ <._ Q Z r O.x.'.`.'.m.b.O.X.<.>.e./.yXtXoXL.J.@.z y Z ",
"X.wXzXAXeX*.=.Y.iXiX<XxXgXkXs.].XX,X8Xs.l 9 1 V ,.>. .; 1 m P B B < : 6./.yX/.>.K ! >.5.O.u.O.#.7.3.` 4.e.(.+X%XpX,X].Q.Y.#.s r ",
"j ~.fXJXHX1X*.F.P.OX XjXhX[.s.iXfXnXXXm.[ G P Y E ( _ Z 6 < n B R Z h S.sXGXvX!.:.( Q -.' ]  .;./ C G r.(.<X$X!.~.eXg.p.N.N.s , ",
"S K.fXDXDXZ.&.6.H.+X;XjXhX.XOX-XnXxX,X*X7./ T E / <.4.%.s * 6 R _ t.C.6XuXKXKXSX7._ L U G Q Q C M 6 F R.>X:XA.x.G.M.u t [ ' - & ",
"! U.DXLXKX4X*.3.0.H.@XMXMXgX=XNXNXaX%XuXV.G U ( 2.H.).D.#.f Q 2.e.U.W.L.OX>XmXCXx./ n U Q >.X.Z Z V } ^.fX6Xp.c 7.%.+ & G I n = ",
"Q J.nXGXlX].N.3.4.r.^.sXSXqX4XA.S.!.aX7Xb w ) q.U.+X=X}.c.>.2.U.@X@X<X@X<XxXBXdX&.w & 7 z p.p.[ ! / ` e.p.$ # f :.Z * < I E U 4 ",
"W <.Y.eXqX7XM.{ r.%.*.V.S.s.p.N.Q.W.].a y ] t.#XsXxX,XA...-.J.-XgX.X.X=XxX,X&Xl.d .   # i.a.s.c ;.( E 9 O O : Z ~ W Q ) <.<.,.q ",
"} <.o.*.C.M.p.x =.d f { &.b p.#.x.x x [ 0.J.yXmXDXzXS.h 7 F K.bX[.'.|.;X,XXXb.+.8 O t l l.Z.u.c ] U 4 . . & N R ( <.q.K././.b.h ",
"#.0.J J ] [ b b &.d Z W K e f | [ , D 4./.pXbX9Xf.$ O X * e K.NX`.].>XGXSXs.h w 2 s { v.(.<X!.G.| 6 X . + A / ( <.J.#XxXsX>X_.l.",
"}.c.f 7 M Z f f ' e W E C N I ( N 2 Q q.^.6Xi.u : o = = 4 } I.cX8XuXrXrXC.y 7 V K 0.H.|.<XMX%Xb.f - X + S ) ( _ +.b.*XZXDXGXcX*X",
"n.l.f w M M 7 w D ! _ ~ w A E E V 3 W X.x v y e M M 4 n C  .O.'.C.s.v z h 0 M / <.K.>X XjXVXCXS.f 2 2 A ) ( E A k l.}..X{.kX8X`.",
"u.O.{ K U I G ~ ,.<.q.6.O.} ) U = & 7 r S J H ) <.<.A I T Z , y t y e G H 2 M ( q.yXGXjXVX*XZ.z f 5 C / ( W N 6 d &.P.@X+X].s.s.",
"m.G.+.~ ) _ 8.8.e.w.(.^.!.7.,.H ; 2 Z G Q ( ` e./.~.&.G Y 4 % 2 G W ) ( R 3 V ( -.A.CXCXlXi.l ' K ! 2.2.:.J N I K @.^.>X-X;Xm.}.",
"oXc.| W ) 8.(.+X:XV.XX!.OXF.;.N 3 Z o.2.` ` q.(.:XzXy.: M L 3 A 2.e.T.q.] 9 A M , t i.i.p : Z ) 1.w.E.H.w.1.<._ Q S 7.$XnXBX:X:X",
"Q.0.J A D e.-XhX,XS.P.OX!.$.D 6 G 2.J.#.{ ' +.m.*X5Xp 0 C ( -.w./.yXyXC.&.X.,.Q 5 7 r 0 , M / _ 5.W.rX~.Y.w.E.t.X.D ;.E.#XaXeXoX",
"r.s : * 0 6.>X,XcXuXOXL.F.[ , - G q.~.l.j e [ v.v.i.s J ( <.Y.7XDXAXeXZ.b.I.K.;.6 V U R I E ( <.=.Y.).Y.*.F.^.S.u.X.<.4.{ k x =.",
"z # # , D ;.R.Q.oX].m.#.] 9 8 e ,.q.N.z ' J ~ >.7.o.K ( _ e.~.7XuXoXW.I.U.@X#X#.7 N E E / _ <.q.t.E.3X).N.7.^.'.n.x.| Z X . : d ",
"wX5Xi.[ ;.` 4.6.*.*.] 7 - 0 ..$.0.0.o.X.:.) ) <.3.<.H ( >.F.oXuXaX>X%X$X>X<XaXM.8 M E R D >.8.e.^.3XfXiXS.H.(.+X}.z.+.w X o D H.",
"=X'.Z.c.3.( E M ; 3 - o - S 5.Y.7.;./ ) ) ~ ) <.^ A 1 M s y.`.[._.OX:XoX].oXXXb e G / V w -.e.J.R.^.sXCX7X/.>XbX9Xv.#.! 6 G 9.|.",
"NX&XiXm.1.( m X o w w 2 q ! 1.5.1.<.( ( ~ -.1.0.[ , , q y i v.'.}.@XpXuX7XS.v.*.o.` ) C V ,.J.(.%X%XnXdX4X~.pXuX4XF.#.<./ 4.(.vX",
"[._..XB.,.C 1 o 9 ..=.' ! ( <.2.q.| f f f j | [ f f <.2.s k I.:X|.>XsXBX.XM.{ -.o.] A n U ` K.nXCXZXZX9Xg.M.oX9X6XXXQ.-.w o.wXCX",
"Z.L.v.] W H e z N.^.Q.O.D H _ 5.b p l l.N.O.j f  .q.(.2Xa d H.&XsXaXbXJX5X&.;.<.q.} Z m R _ e.5Xk.0XzXzX1XZ.W.D.L.Q.z o & S M.C.",
"O.d e G ( 4.V.1XC.m.L.+.f f j l.p.i.v.OXpXD.x ] 2.(.ZXh.$ y 1.x.M.M.B.Z.i.X.q.e.T.] 6 C E ( r @ @ d.9XHXqXS.L.P.b.X.: o 4 W 2.@.",
"Z 6 C ( 2./.9Xj.C.m.7...d k c G.I.!.OX<XxX4Xl :.e.iXlXh.v ' _ w : , f ] j =.)./.T.F 1 V I / w + : x !.,Xj.p.l.O.' q 3 N ( _ ~ J ",
"< 4 E 2.+XNXkXa.C.c.0.8.x.v.Y.U.@X-X>X<XxXXXx.6.T.9X0Xj.M.>.( n * 9 K ~ o.%.p.p.s , & 6 Q 2.q.X.] :.G.V.v h ' D S  .q.T.E.%.+ * ",
"4 L <.U.VXKXk.i.c 7.e.R.S.m.U.|.hX,X{..XmXAXwXF.G.].7XuXD.t.! A } 3.q.6.&.*.k 0 : , , d 5.U.#X~.j ;.<.K 9 6 C G >.J.#XnXSXd.O * ",
"L ( J.-XVXkXf.u.O.1.J.$X.XL.|. XhX.X'.z.>XiXD.b #.L.$X*Xp.$.r.2.J.e./.Q.V.$.f 7 Z ,.e.N.Y.pXAXSXi.@.8.! 5 4 m K 9.-XVXFXDXj.t w ",
"E <.(.;XxXa.a h -.q.(.cXcX&X|.|.-X-X>XOX<X*XZ.x o.F.Q.S.i %./.#XhXY.t.N.N.1.K 0 -.J.#XuXS.oXoX9Xg.OX+Xc., = V 2.(.MXBXVXSX9Xp.K ",
"( e.sXGX9Xi f Q _ e.-XhXgX_.;XvXBXDXmXuX].u.f K ( <.o.z y f @.DXFXG * ; Q _ K y F.pXmXHXg.D./.<XuX;XcXs.# = C e.xXFXBXNXSX8Xl K "
};
