/* XPM */
static char *_8ed8f02f74e4e64e284ef2156e8a4f8yfBqIsdR6vSEqrJo[] = {
/* columns rows colors chars-per-pixel */
"64 64 43 1 ",
"  c #002D00",
". c #003000",
"X c #003F00",
"o c #004200",
"O c #004400",
"+ c #004A00",
"@ c #004C00",
"# c #005200",
"$ c #005400",
"% c #005A00",
"& c #005C00",
"* c #006300",
"= c #006500",
"- c #006800",
"; c #006D00",
": c #007300",
"> c #007400",
", c #007900",
"< c #007D00",
"1 c #008300",
"2 c #008500",
"3 c #008900",
"4 c #008E00",
"5 c #009100",
"6 c #009400",
"7 c #009900",
"8 c #009D00",
"9 c #00A000",
"0 c #00A400",
"q c #00A800",
"w c #00AE00",
"e c #00B000",
"r c #00B400",
"t c #00BA00",
"y c #00BF00",
"u c #00C200",
"i c #00C600",
"p c #00CA00",
"a c #00CE00",
"s c #00D300",
"d c #00D600",
"f c #00D800",
"g c #00DE00",
/* pixels */
"=pppppt@-=>,sfffsu>277368322yyypiaaaaapwrq;$52-s6te4p4-:$,,8ewq7",
":pppiu>2>-4dfffffd74099009847ytpeqetuy0;3;.---au4y2>*-,3,@*+1-<>",
"-pppp8O1,9ddffffsd,99880w09798wt4tuiq72;yr75rew62u32-2>w8<*%1&55",
"2wpiw=1:5<waffffdf5q8q7qwee5#744ttyy54286ut0=,31<59tyaw1t7:2<45e",
"6=t84ryw0127ufffs9qw78688778&>,rtqe0,8auq66u6%54>tafggttyr;,;*+&",
"<>61yyuu7<,><y66370q79780969><980975>3dqpw8ur<t7esdffgt2yt63w522",
"5yuuyuuu212<X::5<03;7083wqur6@->#=:21<7qdsyutqs0ufsddfi1yte4tte>",
"wuuuytyw0qq9=$<w96*18091qwpiq2=:%e267746qwde4qs5affgad2=rrt6tyy<",
"tuuuutt4rewe,6trr=O;yiw7upppt6>##0truu020wp81i,tpdff7q77856<2yy3",
"yuuuutw4trq18tuew>,e0wu9iipiey;2<tyr70e8r407y66yysfd79euitu962y4",
"yutrw66332e4wuiy813rt500yuuyer;r5qy38tyu8qwep03usppy58ipsaspe2t<",
"qw0871$<564<qiiiw7wtt0rqerttry7s50r29ty6170y603rriq386tadpsss6%$",
"6776ss237874uiiiu96w90i99euuyy;us780r0r06764:y8816>26,<yapassi2O",
"ddddssa59986uiii690qrti1<9ppuu580i44824302q<6tq1<24399617aasss84",
"dsssapi8978qyiiu3>2yayu8=3ypie4u-263;&$*50wq38;<0qqreyiw6yassaq-",
"63assap453w5qui<5-*este8=-6qt720:67#%<*O:509wyu2679qptr81ytutr4@",
"o&tssspy32we2974w<<0iu83*1,484y8*44$2q536ui8954064qereye490::=;1",
"2=>3py81==48ee8ypu3<905r-6:943e54prO,w0qiiiqe69r798ery09344;8895",
"eq6-52<<02>4q8ipppi6=<98,:O>0e744i2:31<quuiqiruiur6tur642u77eree",
"re0&-2errr1-&9pppaap6<*5>7%176=574;0w26wy562irtuiy5erw885129wwer",
"re5274rrrre&@8ppaaapeq0y09:1>3wtuer777#&9&4;ty0etr309320rw11weer",
"re2<1errrr7:>4ppaapt,61>:r37uppasaau8r-o*29<-w3iww9ty0124e8<<rrr",
"e866<q570q02t2tpapt0,q<285:8aaasssat-44;8ry3<378239y06qew8uw61we",
"93=e9<367849i3wytq,><545422iaassssse4q<5r28qwrr9626q16yaieqpy268",
"=-506;2877-7e358>=188q0wq4>aasassae7,1-,14ryyyyq7322&:uaaue0a3<:",
"7 @-:4-4wq958566,*6q0eere0;655ssa0&11-5*qtyttyyt277e=:8saaiwa03w",
"i;&,=,3>0yuww6ii73wewwerr*1wq974$==8rw2;tyuytuuq:31<;62rpaart4ep",
"p8$>7er6qeeyw6ii6eewweeer6ryytre4=8uii4,yuuyyyt3eyq59u48ria9e56p",
"pt<0yuueyttuqii37ereewr15tyyyyyuyw14ipe,yuuyutq5tye>290u7q88yqip",
"pttyuiiwuturppu39rerewq2ryyyyyuuuyr6ppp3yuyrw2;*tyy38twuu6900qip",
"pueiipp9uuu4pir:=83974@<eyyyyyuuue6pppp49894%+&:*339yu9uu5werwup",
"paaaaaa8iue,tr56<=&=2%1&>7eyuuytw84ppppO%><%>4ay6,or33-23*wyyyyp",
"iaaaaapwrq;$52-s6te4p4-:$,,8ewq7=pppppt@-=>,sfffsu:277358322yyyp",
"eqetuy0;3;.---au4y2>*-,3,@*+1-<>:pppiu>2>-4dfffffd74999009847ytp",
"4tuiq72;yr75rew62u32-2>w8<*%1&55-pppp8O1,9ddffffsd,99880w00798et",
"ttyy54286ut0=,31<59tyaw1t7:2<45e2wpiw=1:5<waffffdf5q8q7qwee5#855",
"tqe0,8auq66u6%54>tafggttyr;,;*+&6=t84ryw0127ufffs9qw78788778&>,r",
"0975>3dqpw8ur<t7esdffgt2yt63w522<>61yyuu7<,><y67370q79780968><98",
"#=:21<7qdsyutqs0ufsddfi1yte4tte>5yuuyuuu212<X::5<03;7083wqyr6@->",
"%e267746qwde4qs5affgad2=rrt6tyy<wuuuytyw0qq9=$<w96*18091qwpiq2=:",
"#0truu020wp81i,tpdff7q77856<2yy3tuuuutt4rewe,6trr=O;yiw7upppt6>#",
"<tyr70e8r407y66yysfd79euitu962y4yuuuutw4trq18tuew>,e0wu9iipiey;2",
"5qy38tyu8qwep03usppy58ipsaspe2t<yutrw66332e4wuiy813rt500yuuyer;r",
"50r29ty6170y603rriq386tadpsss6%$qw0871$<564<qiiiw7wtt0rqerttry7s",
"s780r0r06764:y8816>26,<yapassi2O6776ss237874uiiiu96w00i99euuyy;u",
"0i44824302q<6tq1<24399617aasss84ddddssa59986uiii690qrri1<9ppuu58",
"=263;&$*50wq38;<0qqreyiw6yassaq-dsssapi8978qyiiu3>2ysyu8=3ypie4u",
":67#%<*O:509wtu2679qptr81ytutt4@63assap453w5qui<5-*este8=-6qt720",
"*44$2q536ui8954064qereye490::=;1o&tssspy32we2974w<<0iu83*1,484y8",
"4prO,w0qiiiqe69r798eru09344;88952=>3py71==48ee8yiy3<905r-6:943e5",
"4i2:31<quuiqiruiur6tur742u77ereeeq6-52<<02>4q8ipppi6=<98,:O>0e74",
"74;0w26wy562irtuiy5erw885129wwerre0&-2errr2;&9pppaap6<*5>7%176=5",
"uer777#&9&4;ty0err309320rw11weerre5274rrrre&@8ppaaapeq0y09:1>3wt",
"saau8r-o*29<-w3iww9ty0124e8<<rrrre2<1errrr7:>4ppaapt,61>:r37uppa",
"ssat-44;8ry3<378239y06qew8uw61wee866<q579q02t2tpapt0,q<285:8aaas",
"ssse4q<5r28qwrr9626q16yaieqpy26893=e9<257849i3wytq,><545422iaass",
"sae7,1-,14ryyyyq7322&:uaaue0a3<:=-506;2877-7e358>=18800wq4>aasas",
"a0&11-5*qtyttyyt277e=:8saaiwa03w7 @-:4-3wq958566,*6q0eere0;655ss",
"$==8rw2;tuuytuuq:31<;62rpaart4epi;&,=,3>0yuww6ii73wewwerr*1eq974",
"4=8yii4,yuuyyyt3eyq59u48ria9e56pp8$>7er6qeeyw6ii6eewweeer6ryytre",
"yw14ipe,yuuyutq5tye>290u7q88yqippt<0yuueyttuqii37ereewr15tyyyyyu",
"uyr6ppp3yuyrw2;*tyy38twuu6900qippttyuiiwuyurppu39rerewq3ryyyyyuu",
"ue6pppp49894%+&:*339yu9uu5werwuppueiipp9uuu4pir:=83974@1eyyyyyuu",
"w84ppppO%><$>4ay6,or33-23*wyyyyppaaaaaa8iue,tr56<=&=2%1*>7eyuuyt"
};
