/* XPM */
static char *ee439cd79d134450e2a708068f0acb72reZHWu8VHNTS3aHn[] = {
/* columns rows colors chars-per-pixel */
"64 64 12 1 ",
"  c black",
". c #1A1A18",
"X c #3D241E",
"o c #242423",
"O c #342C28",
"+ c #353734",
"@ c #49383D",
"# c #495254",
"$ c #5B6567",
"% c #BD971B",
"& c #6D8084",
"* c #809EA5",
/* pixels */
"                                                                ",
"$$$$$$$$$$$$#$$$$#$###. $$$$$$$$$$$$$$$$$$$$$$$$$$$$$$$$$$$#$#$$",
"######################. $#######################################",
"######################. $#######################################",
"################@*$###. $#@*$###################################",
"################@$$###. $#@$$###################################",
"################@@####. $#@@####################################",
"######################. $#######################################",
"$$$$$$$$$$$$$$$$$$$$$$O.*$$$$$$$$$$$$$$$$$$$$$$$$$$$$$$$$$$$$$$$",
"######################. $#######################################",
"$$$$$$$$$$$$$$$$$$$$$$O.*$$$$$$$$$$$$$$$$$$$$$$$$$$$$$$$$$$$$$$$",
"$$$$$$$$$$$$$$$$$$$$$$. *$$$$$$$$$$$$$$$$$$$$$$$$$$$$$$$$$$$$$$$",
"$$$$$$$$$$$$$$$$$$$$$$O.*$$$$$$$$$$$$$$$$$$$$$$$$$$$$$$$$$$$$$$$",
"$$$$$$$$$$$$$$$$$$$$$$O.*$$$$$$$$$$$$$$$$$$$$$$$$$$$$$$$$$$$$$$$",
"$$$$$$$$$$$$$$$$$$$$$$O.*$$$$$$$$$$$$$$$$$$$$$$$$$$$$$$$$$$$$$$$",
"$$$$$$$$$$$$$$$$$$$$$$..&$$$*$$$$$$$*$$$$$$$$$$$$$$$$$$$$$$$$$$$",
"$$$$$$$$$$$$$$$$$$$$$$O.*$$@$$$$$$$@$$$$$$$$$$$$$$$$$$$$$$$$$$$$",
"$$$$$$$$$$$$$$$$$$$$$$..&$$$$$$$$$$$$$$$$$$$$$$$$$$$$$$$$$$$$$$$",
"$$$$$$$$$$$$$$$$$$$$$$O.&&&&&&&&&&&$&$&$$$$$$$$$$$$$$$$$$$$$$$$$",
"$$$$$$$$$$$$$$$$$$$$$$OOOOOOOOOOO.O.O... #$$$$$$$$$$$$$$$$$$$$$$",
"$$$$$$$$$$$$$$$$$$$$$$#OOOOOOOOOOO.O.O... $$$$$$$$$$$$$$$$$$$$$$",
"$$$$$$$$$$$$$$$$$$$$$$$$$$$$$$$$$$$$$$$$. &$$$$$$$$$$$$$$$$$$$$$",
"$$$$$$$$$$$$$$$$$$$$$$$$$$$$$$$$$$$$$$$$. *$$$$$$$$$$$$$$$$$$$$$",
"$$$$$$$$$$$$$$$$$$$$$$$$$$$$*$$$$$$$*$$$. *$$$$$$$$$$$$$$$$$$$$$",
"$$$$$$$$$$$$$$$$$$$$$$$$$$$@$$$$$$$@$$$$. *$$$$$$$$$$$$$$$$$$$$$",
"$$$$$$$$$$$$$$$$$$$$$$$$$$$$$$$$$$$$$$$$. *$$$$$$$$$$$$$$$$$$$$$",
"$$$$$$$$$$$$$$$$$$$$$$$$$$$$$$$$$$$$$$$$. *$$$$$$$$$$$$$$$$$$$$$",
"$$$$$$$$$$$$$$$$$$$$$$$$$$$$$$$$$$$$$$$$. *$$$$$$$$$$$$$$$$$$$$$",
"%%%%%%%%%%%%%%%%%%%%%%%%%%%%%%%%%%%%%%%$. *$%%%%%%%%%%%%%%%%%%%%",
"%%%%%%%%%%%%%%%%%%%%%%%%%%%%%%%%%%%%%%%$. &$%%%%%%%%%%%%%%%%%%%%",
"%%%%%%%%%%%%%%%%%%%%%%%%%%%%%%%%%%%%%%%$..*$%%%%%%%%%%%%%%%%%%%%",
"%%%%%%%%%%%%%%%%%%%%%%%%%%%%%%%%%%%%%%%$.O&$%%%%%%%%%%%%%%%%%%%%",
"$$$$$$$$$$$$$$$$$$$$$$$$$$$$$$$$$$$$$$$$O.&$$$$$$$$$$$$$$$$$$$$$",
"$$$$$$$$$$$$$$$$$$$$$$$$$$$$$$$$$$@*#$$$.O&$@*#$$$$$$$$$$$$$$$$$",
"$$$$$$$$$$$$$$$$$$$$$$$$$$$$$$$$$$@##$$$O.$$@##$$$$$$$$$$$$$$$$$",
"$$$$$$$$$$$$$$$$$$$$$$$$$$$$$$$$$$@@$$$$.O$$@@$$$$$$$$$$$$$$$$$$",
"$$$$$$$$$$$$$$$$$$$$$$$$$$$$$$$$$$$$$$$$OO$$$$$$$$$$$$$$$$$$$$$$",
"*************************************$*$OO$*$******$*$*$*$******",
"                                                                ",
"                                                                ",
"o. .o...o. .o...o. .o...o. .o...o. .o...o. .o...o. .o...o. .o...",
"+. ++o.++. ++o.++. ++o.++. ++o.++. ++o.++. ++o.++. ++o.++. ++o.+",
"+. ++oo++. ++oo++. ++oo++. ++oo++. ++oo++. ++oo++. ++oo++. ++oo+",
"+. ++oo++. ++oo++. ++oo++. ++oo++. ++oo++. ++oo++. ++oo++. ++oo+",
"+o.++oo++o.++oo++o.++oo++o.++oo++o.++oo++o.++oo++o.++oo++o.++oo+",
"+. ++oo++. ++oo++. ++oo++. ++oo++. ++oo++. ++oo++. ++oo++. ++oo+",
"+o.++oo++o.++oo++o.++oo++o.++oo++o.++oo++o.++oo++o.++oo++o.++oo+",
"+o ++oo++o ++oo++o ++oo++o ++oo++o ++oo++o ++oo++o ++oo++o ++oo+",
"+o.++oo++o.++oo++o.++oo++o.++oo++o.++oo++o.++oo++o.++oo++o.++oo+",
"+o.++oo++o.++oo++o.++oo++o.++oo++o.++oo++o.++oo++o.++oo++o.++oo+",
"+..++oo++..+ooo++..++oo++..+ooo++..++oo++..+ooo++..++oo++..+ooo+",
"+o.++oo++o.++oo++o.++oo++o.++oo++o.++oo++o.++oo++o.++oo++o.++oo+",
"o. +ooo+o. +ooo+o. +ooo+o. +ooo+o. +ooo+o. +ooo+o. +ooo+o. +ooo+",
"+..o+oo++..o+oo++..o+oo++..o+oo++..o+oo++..o+oo++..o+oo++..o+oo+",
"o. +oo.+o. +oo.+o. +oo.+o. +oo.+o. +oo.+o. +oo.+o. +oo.+o. +oo.+",
"o  oo. oo  oo. oo  oo. oo  oo. oo  oo. oo  oo. oo  oo. oo  oo. o",
"*********&****&*&*&*&*&&&&&&*&*&*&***********************&****&*",
"$$$$$$$$#$$$$$$$$$$$$$$$$#$$$$$$$$$$$$$#$#$$$$$$#$#$$$$$#$$$$$$$",
"$#$$$$$#$$$$$$$$$$$$$$$##$$$$$$$$$$$$$$$#$$$$$$$$#$$$$$#$$$$$$$$",
"#$$*#$$$$$$*#$$$$$$*#$$#$$$*#$$$$$$*#$$#$$$*#$$$#$$*#$$$$$$*#$$$",
"$$@##$$$$$@##$$$$$@##$#$#$@##$$$$$@##$$$$$@##$$#$$@##$$$$$@##$$#",
"#$@@$$$$$$@@$$$$$$@@$$$#$$@@$$$$$$@@$$$$$$@@$$##$$@@$$$$$$@@$$#$",
"$$$$$$$$$$$$$$$$$$$$$$#$$$$$$$$$$$$$#$$$$$$$$$#$$$$$$$$$$$$$$#$#",
"@XXXXXX@X@X@@@@@@@X@X@.@.@....@.@@@@@@@@X@X@@X@X@XXXXXX@X@X@@@@@"
};
