/* XPM */
static char *_8221d1a77424a13feb31aa3ade8702d16DagUodxiqa3OMw[] = {
/* columns rows colors chars-per-pixel */
"64 64 11 1 ",
"  c black",
". c #1A1A18",
"X c #3D241E",
"o c #242423",
"O c #353734",
"+ c #49383D",
"@ c #495254",
"# c #625249",
"$ c #5B6567",
"% c #6D8084",
"& c #809EA5",
/* pixels */
"                                                                ",
"$$$$$$$$$$$$$@$@$$$$$$$$$$@$@$@$$$$$$$$$$$$$$$$$$$$$$$$$$$$@$@$$",
"@@@@@@@@@@@@@@@@@@@@@@@@@@@@@@@@@@@@@@@@@@@@@@@@@@@@@@@@@@@@@@@@",
"@@@@@@@@@@@@@@@@@@@@@@@@@@@@@@@@@@@@@@@@@@@@@@@@@@@@@@@@@@@@@@@@",
"@@@@@@@@@@@@@@@@@@@@@@@@@@@@@@@@@@@@@@@@@@@@@@@@@@@@@@@@@@@@@@@@",
"@@@@@@@@@@@@@@@@@@@@@@@@@@@@@@@@@@@@@@@@@@@@@@@@@@@@@@@@@@@@@@@@",
"@@@@@@@@+@@@@@@@@@@@@@@@@@@@@@@@@@@@@@@@@@@@@@@@@@@@@@@@@@@@@@@@",
"@@@@@@@+.+@@@@@@@@@@@@@@@@@@@@@@@@@@@@@@@@@@@@@@@@@@@@@@@@@@@@@@",
"$$$$$$$###$$$$$$$$$$$$$$$$$$$$$$$$$$$$$$$$$$$$$$$$$$$$$$$$$$$$$$",
"@@@@@@@+++@@@@@@@@@@@@@@@@@@@@@@@@@@@@@@@@@@@@@@@@@@@@@@@@@@@@@@",
"$$$$$$$##$$$$$$$$$$$$$$$$$$$$$$$$$$$$$$$$$$$$$$$$$$$$$$$$$$$$$$$",
"$$$$$$$###$$$#$$$$$$$$$$$$$$$$$$$$$$$$$$$$$$$$$$$$$$$$$$$$$$$$$$",
"$$$$$$$##$$$#+#$$$$$$$$$$$$$$$$$$$$$$$$$$$$$$$$$$$$$$$$$$$$$$$$$",
"$$$$$$$##$$$###$$$$$$$$$$$$$$$$$$$$$$$$$$$$$$$$$$$$$$$$$$$$$$$$$",
"$$$$$$$$#$$$$##$$$$$$$$$$$$$$$$$$$$$$$$$$$$$$$$$$$$$$$$$$$$$$$$$",
"$$$$$$$##$$$$#$$$$$$$$$$$$$$$$$$$$$$$$$$$$$$$$$$$$$$$$$$$$$$$$$$",
"$$$$$$$$#$$$$$#$$$$$$$$$$$$$$$$$$$$$$$$$$$$$$$$$$$$$$$$$$$$$$$$$",
"$$$$$$$$#$$$$#$$$$$$$$$$$$$$$$$$$$$$$$$$$$$$$$$$$$$$$$$$$$$$$$$$",
"$$$$$$$$$$$$$$$$$$$$$$$$$$$$$$$$$$$$$$$$$$$$$$$$$$$$$$$$$$$$$$$$",
"$$$$$$$$#$$$$$$$$$$$$$$$$$$$$$$$$$$$$$$$$$$$$$$$$$$$$$$$$$$$@%$$",
"$$$$$$$$$$$$$$$$$$$$$$$$$$$$$$$$$$$$$$$$$$$$$$$$$$$$$$$$$$$@&$$$",
"$$$$$$$$$$$$$$$$$$$$$$$$$$$$$$$$$$$$$$$$$$$$$$$$$$$$$$$$$$$%$$$$",
"$$$$$$$$$$$$$$$$$$$$$$$$$$$$$$$$$$$$$$$$$$$$$$$$$$$$$$$$$@$$$$$$",
"$$$$$$$$$$$$$$$$$$$$$$$$$$$$$$$$$$$$$$$$$$$$$$$$$$$$$$@$@$$$$$$$",
"$$$$$$$$$$$$$$$$$$$$$$$$$$$$$$$$$$$$$$$$$$$$$$$$$$$$$@%@$@%$$$$$",
"$$$$$$$$$$$$$$$$$$$$$$$$$$$$$$$$$$$$$$$$$$$$$$$$$$$$@&@$@&$$$$$$",
"$$$$$$$$$$$$$$$$$$$$$$$$$$$$$$$$$$$$$$$$$$$$$$$$$$$@&$$@%$$$$$$$",
"$$$@$$$$$$$$$$$$$$$$$$$$$$$$$$$$$$$$$$$$$$$$$$$$$$$%$$@$$$$$$$$$",
"$$$$@$$$$$$$$$$$$$$$$$$$$$$$$$$$$$$$$$$$$$$$$$$$$$$$$$$$$$$$$$$$",
"$$$@@$$$$$$$$$$$$$$$$$$$$$$$$$$$$$$$$$$$$$$$$$$$$$$$$$$$$$$$$$$$",
"$$@@@$$$$$$$$$$$$$$$$$$$$$$$$$$$$$$$$$$$$$$$$$$$$$$$$$$$$$$$$$$$",
"$$@@$$$$$$$$$$$$$$$$$$$$$$$$$$$$$$$$$$$$$$$$$$$$$$$$$$$$$$$$$$$$",
"$$@@@$$$$$$$$$$$$$$$$$$$$$$$$$$$$$$$$$$$$$$$$$$$$$$$$$$$$$$$$$$$",
"$$$@$$$$$$$$$$$$$$$$$$$$$$$$$$$$$$$$$$$$$$$$$$$$$$$$$$$$$$$$$$$$",
"$$$$@$$$$$$$$$$$$$$$$$$$$$$$$$$$$$$$$$$$$$$$$$$$$$$$$$$$$$$$$$$$",
"$$$$$$$$$$$$$$$$$$$$$$$$$$$$$$$$$$$$$$$$$$$$$$$$$$$$$$$$$$$$$$$$",
"$$$$$$$$$$$$$$$$$$$$$$$$$$$$$$$$$$$$$$$$$$$$$$$$$$$$$$$$$$$$$$$$",
"&&&&&&&&&&&&&&&&&&&&&&&&&&&&$&$&&&&$&&&&&&&$&$&$&&&$&$&$&$&&&&&&",
"                                                                ",
"                                                                ",
"o. .o...o. .o...o. .o...o. .o...o. .o...o. .o...o. .o...o. .o...",
"O. OOo.OO. OOo.OO. OOo.OO. OOo.OO. OOo.OO. OOo.OO. OOo.OO. OOo.O",
"O. OOooOO. OOooOO. OOooOO. OOooOO. OOooOO. OOooOO. OOooOO. OOooO",
"O. OOooOO. OOooOO. OOooOO. OOooOO. OOooOO. OOooOO. OOooOO. OOooO",
"Oo.OOooOOo.OOooOOo.OOooOOo.OOooOOo.OOooOOo.OOooOOo.OOooOOo.OOooO",
"O. OOooOO. OOooOO. OOooOO. OOooOO. OOooOO. OOooOO. OOooOO. OOooO",
"Oo.OOooOOo.OOooOOo.OOooOOo.OOooOOo.OOooOOo.OOooOOo.OOooOOo.OOooO",
"Oo OOooOOo OOooOOo OOooOOo OOooOOo OOooOOo OOooOOo OOooOOo OOooO",
"Oo.OOooOOo.OOooOOo.OOooOOo.OOooOOo.OOooOOo.OOooOOo.OOooOOo.OOooO",
"Oo.OOooOOo.OOooOOo.OOooOOo.OOooOOo.OOooOOo.OOooOOo.OOooOOo.OOooO",
"O..OOooOO..OoooOO..OOooOO..OoooOO..OOooOO..OoooOO..OOooOO..OoooO",
"Oo.OOooOOo.OOooOOo.OOooOOo.OOooOOo.OOooOOo.OOooOOo.OOooOOo.OOooO",
"o. OoooOo. OoooOo. OoooOo. OoooOo. OoooOo. OoooOo. OoooOo. OoooO",
"O..oOooOO..oOooOO..oOooOO..oOooOO..oOooOO..oOooOO..oOooOO..oOooO",
"o. Ooo.Oo. Ooo.Oo. Ooo.Oo. Ooo.Oo. Ooo.Oo. Ooo.Oo. Ooo.Oo. Ooo.O",
"o  oo. oo  oo. oo  oo. oo  oo. oo  oo. oo  oo. oo  oo. oo  oo. o",
"&&&&&&&&&%&&&&%&%&%&%&%%%%%%&%&%&%&&&&&&&&&&&&&&&&&&&&&&&%&&&&%&",
"$$$$$$$$@$$$$$$$$$$$$$$$$@$$$$$$$$$$$$$@$@$$$$$$@$@$$$$$@$$$$$$$",
"$@$$$$$@$$$$$$$$$$$$$$$@@$$$$$$$$$$$$$$$@$$$$$$$$@$$$$$@$$$$$$$$",
"@$$&@$$$$$$&@$$$$$$&@$$@$$$&@$$$$$$&@$$@$$$&@$$$@$$&@$$$$$$&@$$$",
"$$+@@$$$$$+@@$$$$$+@@$@$@$+@@$$$$$+@@$$$$$+@@$$@$$+@@$$$$$+@@$$@",
"@$++$$$$$$++$$$$$$++$$$@$$++$$$$$$++$$$$$$++$$@@$$++$$$$$$++$$@$",
"$$$$$$$$$$$$$$$$$$$$$$@$$$$$$$$$$$$$@$$$$$$$$$@$$$$$$$$$$$$$$@$@",
"+XXXXXX+X+X+++++++X+X+.+.+....+.++++++++X+X++X+X+XXXXXX+X+X+++++"
};
